<svg xmlns="http://www.w3.org/2000/svg" width="20" height="20" viewBox="0 0 20 20"><g transform="translate(-18 -561.001)"><path d="M28,581a10,10,0,1,1,10-10A10.011,10.011,0,0,1,28,581Zm0-18.5a8.5,8.5,0,1,0,8.5,8.5A8.51,8.51,0,0,0,28,562.5Z" fill="#3db233"/><path d="M.75,0a.75.75,0,0,1,.743.648L1.5.75V5.169a.75.75,0,0,1-1.493.1L0,5.169V.75A.75.75,0,0,1,.75,0Z" transform="translate(27.245 566.454)" fill="#3db233"/><path d="M.76,0a.75.75,0,0,1,.1,1.493L.75,1.5A.75.75,0,0,1,.648.007Z" transform="translate(27.245 574.046)" fill="#3db233"/></g></svg>