<svg xmlns="http://www.w3.org/2000/svg" width="17" height="20" viewBox="0 0 17 20"><path d="M38,391a1.679,1.679,0,0,1-.986-.317l-.06-.048-.414-.278a20.725,20.725,0,0,1-4.533-4.256l-.317-.413a10.7,10.7,0,0,1-2.19-6.161l0-.285A8.513,8.513,0,0,1,38,371h.029l.256,0a8.515,8.515,0,0,1,8.216,8.548v.1c-.049,2.64-1.335,5.369-3.719,7.892a21.176,21.176,0,0,1-3.745,3.095l-.05.041A1.679,1.679,0,0,1,38,391Zm.023-18.483-.239,0a6.968,6.968,0,0,0-6.771,6.979l.019.356a9.182,9.182,0,0,0,1.864,4.915,19.216,19.216,0,0,0,4.9,4.6l.083.062a.181.181,0,0,0,.238,0l.085-.064a19.554,19.554,0,0,0,3.483-2.875c2.117-2.24,3.258-4.611,3.3-6.858l0-.331A6.969,6.969,0,0,0,38.023,372.517Z" transform="translate(-29.5 -371)" fill="#3db233"/><path d="M38,382.9a3.248,3.248,0,1,1,3.238-3.248A3.247,3.247,0,0,1,38,382.9Zm0-4.979a1.731,1.731,0,1,0,1.725,1.731A1.73,1.73,0,0,0,38,377.919Z" transform="translate(-29.5 -371)" fill="#3db233"/></svg>