<svg xmlns="http://www.w3.org/2000/svg" width="120" height="120" viewBox="0 0 120 120">
    <circle cx="40" cy="40" r="40" transform="translate(20 20)" fill="#3DB233" fill-opacity=".22" />
    <g fill="none" stroke="#3db233" stroke-width="0.5" stroke-dasharray="5 5">
        <circle cx="60" cy="60" r="60" stroke="none" />
        <circle cx="60" cy="60" r="59.75" fill="none" />
    </g>
    <circle cx="25" cy="25" r="25" transform="translate(35 35)" fill="#3db233" />
    <path d="M0,0H24V24H0Z" transform="translate(48 48)" fill="#902b2b" opacity="0" />
    <path d="M1.564.782A.782.782,0,1,1,.782,0,.782.782,0,0,1,1.564.782Z"
        transform="translate(60.612 62.75)" fill="#fff" />
    <path
        d="M13.584,18.679a.782.782,0,0,1-.553,1.334H3.168A3.151,3.151,0,0,1,0,16.888V10.482A3.151,3.151,0,0,1,3.169,7.357h.949V4.6a4.756,4.756,0,0,1,9.507,0V7.357h.952a3.19,3.19,0,0,1,.874.108.78.78,0,0,1,.543.966.794.794,0,0,1-.98.536,1.634,1.634,0,0,0-.438-.048H3.168a1.575,1.575,0,0,0-1.584,1.563v6.406A1.575,1.575,0,0,0,3.168,18.45h9.863a.781.781,0,0,1,.553.229ZM5.7,7.357H12.04V4.6A3.172,3.172,0,0,0,5.7,4.6Z"
        transform="translate(51.001 49.987)" fill="#fff" />
    <path d="M1.564.782A.782.782,0,1,1,.782,0,.782.782,0,0,1,1.564.782Z"
        transform="translate(57.641 62.75)" fill="#fff" />
    <path
        d="M5.594,2.665a2.793,2.793,0,0,1-1.7,2.573.521.521,0,0,0-.31.485V6.4a.787.787,0,1,1-1.575,0V5.723A2.094,2.094,0,0,1,3.275,3.79a1.221,1.221,0,0,0,.743-1.1V2.669a1.221,1.221,0,0,0-2.443,0A.787.787,0,1,1,0,2.669a2.8,2.8,0,0,1,5.592-.036.177.177,0,0,0,0,.032Z"
        transform="translate(64.408 60.25)" fill="#fff" />
    <path d="M1.564.782A.782.782,0,1,1,.782,0,.782.782,0,0,1,1.564.782Z"
        transform="translate(66.39 68.436)" fill="#fff" />
    <path d="M1.564.782A.782.782,0,1,1,.782,0,.782.782,0,0,1,1.564.782Z"
        transform="translate(54.67 62.75)" fill="#fff" />
</svg>